<?xml version="1.0" encoding="UTF-8" standalone="no"?>
<svg
   width="64.408997"
   height="37"
   viewBox="0 0 64.408997 37"
   fill="red"
   version="1.1"
   id="svg175"
   xml:space="preserve"
   sodipodi:docname="logo4.svg"
   inkscape:version="1.2.2 (b0a8486, 2022-12-01)"
   inkscape:export-filename="coding/blog/Assets/logo.svg"
   inkscape:export-xdpi="96"
   inkscape:export-ydpi="96"
   xmlns:inkscape="http://www.inkscape.org/namespaces/inkscape"
   xmlns:sodipodi="http://sodipodi.sourceforge.net/DTD/sodipodi-0.dtd"
   xmlns="http://www.w3.org/2000/svg"
   xmlns:svg="http://www.w3.org/2000/svg"><sodipodi:namedview
     id="namedview19"
     pagecolor="#ffffff"
     bordercolor="#000000"
     borderopacity="0.25"
     inkscape:showpageshadow="2"
     inkscape:pageopacity="0.0"
     inkscape:pagecheckerboard="0"
     inkscape:deskcolor="#d1d1d1"
     showgrid="false"
     inkscape:zoom="4.3942712"
     inkscape:cx="54.616565"
     inkscape:cy="12.288727"
     inkscape:window-width="1356"
     inkscape:window-height="697"
     inkscape:window-x="0"
     inkscape:window-y="35"
     inkscape:window-maximized="1"
     inkscape:current-layer="svg175" /><defs
     id="defs173" /><g
     aria-label="mbumwa"
     id="text492"
     style="font-size:26.6667px;font-family:Akashi;-inkscape-font-specification:Akashi;fill:#ff6600"><g
       aria-label="mbumwa"
       id="text329"
       style="font-weight:900;font-size:32px;font-family:'Source Sans Pro';-inkscape-font-specification:'Source Sans Pro Heavy'"><path
         d="m 1.584,18.656001 q 0.32,-0.992 0.832,-2.24 0.512,-1.248 0.928,-2.208 0.256,-0.544 0.544,-1.184 0.288,-0.64 0.736,-0.64 0.288,0 0.416,0.192 0.128,0.192 0.16,0.512 0.064,0.288 0.032,0.672 0,0.352 0,0.672 l -0.064,2.528 q -0.064,1.088 -0.032,1.984 0.064,0.864 0.096,1.792 0.032,0.32 0.064,0.576 0.064,0.224 0.096,0.512 0.192,-0.16 0.352,-0.512 0.192,-0.384 0.352,-0.64 0.16,-0.288 0.288,-0.544 0.16,-0.288 0.32,-0.64 l 0.64,-1.184 q 0.096,-0.192 0.16,-0.32 0.064,-0.128 0.16,-0.288 0.16,-0.288 0.448,-0.8 0.288,-0.544 0.672,-0.544 0.064,0 0.064,0.032 0.032,0 0.064,0 0.32,0.096 0.48,0.608 0.192,0.512 0.384,1.088 0.192,0.576 0.48,1.056 0.32,0.48 0.832,0.48 0.352,0 0.768,-0.224 0.448,-0.256 0.864,-0.512 0.448,-0.288 0.8,-0.512 0.384,-0.256 0.608,-0.256 0.224,0 0.224,0.288 0,0.16 -0.352,0.48 -0.352,0.32 -0.864,0.672 -0.512,0.32 -1.088,0.576 -0.576,0.256 -1.024,0.256 -0.48,0 -0.896,-0.352 -0.416,-0.352 -0.704,-0.832 -0.288,-0.512 -0.48,-1.024 -0.16,-0.512 -0.192,-0.832 -0.192,0.128 -0.48,0.672 -0.256,0.512 -0.416,0.768 -0.128,0.256 -0.224,0.416 -0.064,0.128 -0.192,0.32 l -1.184,2.304 q -0.16,0.256 -0.384,0.544 -0.192,0.32 -0.512,0.32 -0.096,0 -0.352,-0.128 -0.352,-0.224 -0.512,-1.376 -0.16,-1.152 -0.192,-2.528 -0.032,-1.408 0,-2.72 0.032,-1.312 0.032,-1.888 -0.032,0.064 -0.032,0.064 l -1.76,4.224 q -0.224,0.576 -0.416,1.152 -0.192,0.544 -0.352,1.12 -0.064,0.192 -0.16,0.544 -0.096,0.32 -0.256,0.64 -0.128,0.288 -0.288,0.512 -0.15999999,0.256 -0.38399999,0.256 -0.512,0 -0.64,-0.864 -0.096,-0.864 0,-1.952 0.096,-1.12 0.288,-2.176 0.192,-1.056 0.256,-1.408 0.16,-0.672 0.288,-0.928 Q 1.04,14.976001 1.2,14.976001 q 0.16,0 0.224,0.16 0.096,0.16 0.096,0.384 0,0.128 -0.096,0.192 -0.096,0.032 -0.128,0.032 -0.16,0.192 -0.288,0.704 -0.096,0.512 -0.15999999,1.12 -0.032,0.608 -0.064,1.184 -0.032,0.544 -0.032,0.8 0,0.256 -0.064,0.352 -0.032,0.096 0.032,0.352 0,0.16 0,0.32 0.032,0.16 0.032,0.416 z"
         style="font-weight:bold;font-family:Themysion;-inkscape-font-specification:'Themysion Bold'"
         id="path392" /><path
         d="m 17.071984,22.944001 q 0.352,-0.096 0.8,-0.48 0.48,-0.352 0.896,-0.832 0.416,-0.48 0.736,-0.96 0.32,-0.48 0.384,-0.768 l -0.864,0.672 q -0.192,0.16 -0.512,0.48 -0.288,0.288 -0.608,0.672 -0.288,0.352 -0.544,0.672 -0.224,0.352 -0.288,0.544 z m -1.824,-10.336 q -0.032,0 0.064,-0.096 l 0.672,-1.888 q 0.352,-1.1200003 0.64,-2.3360003 0.256,-1.024 0.416,-1.728 0.16,-0.704 0.256,-1.344 0.096,-0.672 0.128,-1.408 0.032,-0.736 0.032,-1.824 0,-0.352 -0.064,-0.544 -0.064,-0.224 -0.096,-0.51199995 -0.352,0.22399995 -0.64,1.02399995 -0.288,0.8 -0.544,1.92 -0.224,1.12 -0.416,2.432 -0.16,1.312 -0.288,2.56 -0.096,1.2160003 -0.16,2.2720003 -0.064,1.024 -0.064,1.632 z m -1.44,2.976 q 0,-0.192 0.064,-0.192 0.064,0 0.128,-0.096 0.064,-0.128 0.128,-0.48 0.064,-0.352 0.064,-1.28 0,-0.48 0.032,-1.664 0.064,-1.184 0.16,-2.6880003 0.128,-1.504 0.352,-3.136 0.224,-1.632 0.576,-2.976 0.384,-1.344 0.864,-2.20799995 0.512,-0.86400000231934 1.216,-0.86400000231934 0.448,0 0.64,0.51200000231934 0.224,0.51199995 0.256,1.31199995 0.032,0.768 -0.064,1.728 -0.064,0.928 -0.192,1.792 -0.128,0.864 -0.288,1.536 -0.128,0.672 -0.192,0.896 -0.16,0.576 -0.32,1.12 -0.16,0.512 -0.32,1.056 l -1.184,3.0080003 q -0.128,0.288 -0.224,0.48 -0.064,0.192 -0.192,0.448 -0.16,0.384 -0.192,0.544 -0.032,0.16 -0.032,0.672 v 6.912 q 0.064,-0.032 0.096,-0.128 0.32,-0.544 0.544,-1.12 0.256,-0.608 0.832,-1.6 0.224,-0.384 0.608,-0.992 0.416,-0.608 0.896,-1.152 0.48,-0.576 1.024,-0.96 0.544,-0.416 1.056,-0.416 0.544,0 0.896,0.48 0.352,0.48 0.352,1.504 l 3.552,-2.464 q 0.448,-0.288 0.704,-0.448 0.256,-0.16 0.544,-0.16 0.192,0 0.288,0.032 0.128,0.416 0.032,0.48 -0.096,0.064 -0.448,0.224 -0.288,0.128 -0.896,0.576 -0.608,0.416 -1.312,0.928 -0.672,0.512 -1.312,0.992 -0.64,0.48 -0.992,0.736 -0.288,0.192 -0.352,0.288 -0.064,0.064 -0.16,0.416 -0.192,0.544 -0.64,1.344 -0.416,0.768 -1.024,1.472 -0.576,0.736 -1.248,1.248 -0.672,0.512 -1.312,0.512 -0.256,0 -0.448,-0.16 -0.192,-0.16 -0.192,-0.544 0,-0.288 0.224,-0.704 0.256,-0.416 0.576,-0.832 0.352,-0.416 0.704,-0.768 0.352,-0.384 0.576,-0.608 l 1.728,-1.472 q 0.352,-0.256 0.416,-0.32 0.064,-0.064 0.128,-0.384 0.032,-0.16 0.032,-0.416 0,-0.256 -0.032,-0.48 -0.032,-0.256 -0.128,-0.448 -0.096,-0.192 -0.288,-0.192 -0.256,0 -0.576,0.224 -0.288,0.224 -0.576,0.512 -0.288,0.288 -0.512,0.608 -0.224,0.32 -0.384,0.512 -0.896,1.216 -1.664,2.816 -0.768,1.568 -1.152,3.072 -0.064,0.288 -0.096,0.64 0,0.384 -0.032,0.736 0,0.352 -0.128,0.576 -0.096,0.256 -0.352,0.256 -0.352,0 -0.416,-0.32 -0.064,-0.32 0,-0.704 0.064,-0.352 0.032,-0.704 0,-0.352 0,-0.704 0,-0.768 -0.032,-1.44 -0.032,-0.64 -0.032,-1.44 l -0.096,-4.416 q 0.032,-0.64 -0.032,-0.768 -0.064,-0.16 -0.128,-0.16 -0.064,0 -0.096,0 -0.032,-0.032 -0.032,-0.192 z"
         style="font-weight:bold;font-family:Themysion;-inkscape-font-specification:'Themysion Bold'"
         id="path394" /><path
         d="m 24.975928,18.592001 q 0,-0.224 0.096,-0.864 0.128,-0.672 0.32,-1.344 0.224,-0.704 0.48,-1.216 0.256,-0.544 0.544,-0.544 0.32,0 0.224,0.416 -0.128,0 -0.16,0 -0.032,-0.032 -0.128,-0.032 -0.064,0.096 -0.16,0.288 -0.096,0.16 -0.192,0.512 -0.192,0.512 -0.32,0.896 -0.064,0.416 -0.16,0.96 -0.064,0.544 -0.064,1.088 0,0.416 0.064,0.672 0.064,0.256 0.096,0.512 0.16,-0.064 0.384,-0.416 0.256,-0.352 0.512,-0.8 0.256,-0.48 0.48,-0.896 0.224,-0.416 0.32,-0.576 0.256,-0.384 0.48,-0.928 0.256,-0.544 0.608,-0.544 0.224,0 0.288,0.32 0.064,0.288 0.16,0.672 0.096,0.352 0.256,0.672 0.16,0.288 0.576,0.288 0.192,0 0.544,-0.128 0.352,-0.16 0.704,-0.384 0.384,-0.224 0.704,-0.448 0.352,-0.224 0.544,-0.384 0.064,-0.064 0.256,-0.192 0.192,-0.16 0.352,-0.16 0.128,0 0.128,0.16 0,0.128 -0.192,0.32 -0.16,0.16 -0.384,0.352 -0.224,0.192 -0.448,0.352 -0.224,0.128 -0.32,0.192 -0.608,0.384 -1.024,0.608 -0.384,0.192 -1.024,0.192 -0.608,0 -0.928,-0.576 -0.288,-0.608 -0.32,-1.024 -0.032,0.032 -0.16,0.224 -0.128,0.192 -0.256,0.448 -0.096,0.224 -0.224,0.448 -0.096,0.192 -0.128,0.256 l -1.152,2.016 q -0.128,0.128 -0.256,0.288 -0.128,0.16 -0.288,0.224 -0.064,0.032 -0.192,0.032 -0.256,0 -0.416,-0.224 -0.128,-0.256 -0.192,-0.576 -0.032,-0.32 -0.032,-0.64 0,-0.32 0,-0.512 z"
         style="font-weight:bold;font-family:Themysion;-inkscape-font-specification:'Themysion Bold'"
         id="path396" /><path
         d="m 33.519852,18.656001 q 0.32,-0.992 0.832,-2.24 0.512,-1.248 0.928,-2.208 0.256,-0.544 0.544,-1.184 0.288,-0.64 0.736,-0.64 0.288,0 0.416,0.192 0.128,0.192 0.16,0.512 0.064,0.288 0.032,0.672 0,0.352 0,0.672 l -0.064,2.528 q -0.064,1.088 -0.032,1.984 0.064,0.864 0.096,1.792 0.032,0.32 0.064,0.576 0.064,0.224 0.096,0.512 0.192,-0.16 0.352,-0.512 0.192,-0.384 0.352,-0.64 0.16,-0.288 0.288,-0.544 0.16,-0.288 0.32,-0.64 l 0.64,-1.184 q 0.096,-0.192 0.16,-0.32 0.064,-0.128 0.16,-0.288 0.16,-0.288 0.448,-0.8 0.288,-0.544 0.672,-0.544 0.064,0 0.064,0.032 0.032,0 0.064,0 0.32,0.096 0.48,0.608 0.192,0.512 0.384,1.088 0.192,0.576 0.48,1.056 0.32,0.48 0.832,0.48 0.352,0 0.768,-0.224 0.448,-0.256 0.864,-0.512 0.448,-0.288 0.8,-0.512 0.384,-0.256 0.608,-0.256 0.224,0 0.224,0.288 0,0.16 -0.352,0.48 -0.352,0.32 -0.864,0.672 -0.512,0.32 -1.088,0.576 -0.576,0.256 -1.024,0.256 -0.48,0 -0.896,-0.352 -0.416,-0.352 -0.704,-0.832 -0.288,-0.512 -0.48,-1.024 -0.16,-0.512 -0.192,-0.832 -0.192,0.128 -0.48,0.672 -0.256,0.512 -0.416,0.768 -0.128,0.256 -0.224,0.416 -0.064,0.128 -0.192,0.32 l -1.184,2.304 q -0.16,0.256 -0.384,0.544 -0.192,0.32 -0.512,0.32 -0.096,0 -0.352,-0.128 -0.352,-0.224 -0.512,-1.376 -0.16,-1.152 -0.192,-2.528 -0.032,-1.408 0,-2.72 0.032,-1.312 0.032,-1.888 -0.032,0.064 -0.032,0.064 l -1.76,4.224 q -0.224,0.576 -0.416,1.152 -0.192,0.544 -0.352,1.12 -0.064,0.192 -0.16,0.544 -0.096,0.32 -0.256,0.64 -0.128,0.288 -0.288,0.512 -0.16,0.256 -0.384,0.256 -0.512,0 -0.64,-0.864 -0.096,-0.864 0,-1.952 0.096,-1.12 0.288,-2.176 0.192,-1.056 0.256,-1.408 0.16,-0.672 0.288,-0.928 0.16,-0.256 0.32,-0.256 0.16,0 0.224,0.16 0.096,0.16 0.096,0.384 0,0.128 -0.096,0.192 -0.096,0.032 -0.128,0.032 -0.16,0.192 -0.288,0.704 -0.096,0.512 -0.16,1.12 -0.032,0.608 -0.064,1.184 -0.032,0.544 -0.032,0.8 0,0.256 -0.064,0.352 -0.032,0.096 0.032,0.352 0,0.16 0,0.32 0.032,0.16 0.032,0.416 z"
         style="font-weight:bold;font-family:Themysion;-inkscape-font-specification:'Themysion Bold'"
         id="path398" /><path
         d="m 53.167836,24.448001 q 0.256,0 0.512,-0.256 0.256,-0.256 0.48,-0.64 0.224,-0.352 0.416,-0.736 0.192,-0.352 0.288,-0.544 0.896,-1.824 1.216,-3.84 0.352,-2.016 0.288,-4.032 0,-0.192 -0.064,-0.448 -0.064,-0.288 -0.064,-0.512 0,-0.224 0.064,-0.384 0.096,-0.16 0.352,-0.16 0.224,0 0.32,0.48 0.096,0.48 0.128,1.12 0.032,0.608 0,1.184 0,0.544 0,0.704 0,0.864 -0.192,1.856 -0.192,0.992 -0.512,1.984 -0.288,0.992 -0.672,1.888 -0.384,0.928 -0.768,1.6 -0.352,0.608 -0.768,1.024 -0.416,0.448 -1.088,0.448 -0.416,0 -0.736,-0.352 -0.32,-0.32 -0.576,-0.8 -0.256,-0.48 -0.416,-1.024 -0.16,-0.512 -0.256,-0.864 -0.224,-1.12 -0.32,-2.176 -0.064,-1.088 -0.064,-2.432 -0.064,0.064 -0.064,0.032 0.032,-0.032 -0.032,0.096 l -1.28,2.592 q -0.192,0.352 -0.48,1.024 -0.256,0.672 -0.608,1.312 -0.352,0.672 -0.768,1.152 -0.384,0.512 -0.8,0.512 -0.448,0 -0.64,-0.416 -0.16,-0.384 -0.224,-0.736 -0.256,-1.088 -0.192,-2.336 0.064,-1.248 0.128,-2.336 l 0.256,-2.88 q -0.256,0 -0.256,0 0.032,-0.032 -0.128,-0.096 -0.032,-0.256 0,-0.672 0.032,-0.416 0.288,-0.64 0.064,-0.032 0.032,-0.032 0,0 0.16,-0.032 0.256,-0.032 0.352,0.256 0.096,0.256 0.096,0.64 0,0.352 -0.032,0.736 -0.032,0.352 -0.032,0.512 0,0.064 0,0.192 0.032,0.096 0.032,0.256 0,0.256 -0.032,0.448 -0.032,0.192 -0.032,0.544 0,0.384 -0.032,0.96 0,0.576 0,1.184 0,0.576 0,1.088 0,0.48 0.032,0.736 0.032,0.288 0,0.512 0,0.256 0.064,0.48 0.064,0.256 0.096,0.416 0.032,0.192 0.064,0.416 0.32,-0.224 0.672,-0.896 0.352,-0.64 0.544,-1.024 l 2.016,-4.224 q 0.096,-0.16 0.224,-0.48 0.128,-0.32 0.288,-0.64 0.16,-0.32 0.288,-0.544 0.16,-0.256 0.288,-0.256 0.32,0 0.32,0.064 0.032,0.032 0.224,0.16 0,1.792 0,3.744 0.032,1.92 0.576,3.52 0.064,0.16 0.16,0.416 0.096,0.256 0.224,0.512 0.16,0.256 0.32,0.448 0.16,0.192 0.32,0.192 z"
         style="font-weight:bold;font-family:Themysion;-inkscape-font-specification:'Themysion Bold'"
         id="path400" /><path
         d="m 57.743834,20.736001 q -0.384,-0.16 -0.416,-0.64 -0.064,-0.352 0.064,-0.704 0.16,-0.416 0.48,-0.928 0.32,-0.544 0.704,-1.024 0.416,-0.48 0.864,-0.832 0.48,-0.384 0.928,-0.448 0.064,0 0.064,0 0.032,-0.032 0.096,-0.032 0.384,0 0.512,0.288 0.096,0.192 0.064,0.512 -0.064,0.416 -0.224,0.416 -0.064,0 -0.096,-0.032 -0.032,-0.032 -0.032,-0.256 0,-0.064 -0.032,-0.064 0,-0.032 0,-0.096 0,-0.032 0,-0.064 0,-0.032 -0.064,-0.032 -0.16,0 -0.576,0.416 -0.384,0.416 -0.8,0.992 -0.128,0.192 -0.288,0.448 -0.16,0.224 -0.32,0.48 -0.128,0.224 -0.224,0.384 -0.064,0.16 -0.064,0.16 0.064,0.064 0.48,-0.352 0.448,-0.448 0.864,-0.96 0.384,-0.448 0.544,-0.608 0.16,-0.192 0.256,-0.256 0.16,-0.096 0.256,-0.096 0.16,0 0.256,0.192 0.064,0.064 0.064,0.16 0,0.064 -0.032,0.416 -0.032,1.088 0.192,1.376 0.096,0.096 0.16,0.096 0.192,0 0.512,-0.192 0.352,-0.192 0.704,-0.448 0.384,-0.288 0.672,-0.544 0.32,-0.256 0.448,-0.384 0.256,-0.256 0.288,-0.256 h 0.096 q 0.192,0 0.192,0.032 0,0.032 0.032,0.064 0.096,0.096 -0.032,0.288 -0.128,0.256 -0.512,0.608 -0.352,0.352 -0.8,0.704 -0.448,0.32 -0.896,0.544 -0.448,0.224 -0.736,0.224 -0.352,0 -0.544,-0.192 -0.192,-0.192 -0.288,-0.448 -0.064,-0.288 -0.096,-0.608 0,-0.32 0,-0.576 0,0 -0.352,0.416 -0.416,0.544 -1.024,1.216 -0.608,0.64 -1.344,0.64 z"
         style="font-weight:bold;font-family:Themysion;-inkscape-font-specification:'Themysion Bold'"
         id="path402" /></g></g><g
     aria-label=".com"
     id="text933"
     style="font-weight:bold;font-size:8px;font-family:Themysion;-inkscape-font-specification:'Themysion Bold';fill:#d45500"><path
       d="m 26.224333,28.727987 q 0,0.101563 -0.04687,0.1875 -0.04687,0.07813 -0.125,0.132813 -0.07031,0.05469 -0.164063,0.08594 -0.08594,0.03125 -0.179687,0.03125 -0.117188,0 -0.257813,-0.04687 -0.132812,-0.03906 -0.25,-0.117187 -0.109375,-0.07813 -0.1875,-0.179688 -0.07813,-0.109375 -0.07813,-0.242187 0,-0.210938 0.179688,-0.3125 0.179687,-0.109375 0.367187,-0.109375 0.117188,0 0.242188,0.03906 0.132812,0.03906 0.242187,0.117188 0.117188,0.07031 0.1875,0.179687 0.07031,0.101563 0.07031,0.234375 z"
       style="font-family:Chewy;-inkscape-font-specification:'Chewy Bold'"
       id="path1117" /><path
       d="m 29.43527,26.102987 q 0,0.03906 -0.0078,0.08594 -0.0078,0.03906 -0.02344,0.07813 -0.07031,0.179687 -0.21875,0.304687 -0.148437,0.117188 -0.351562,0.117188 -0.304688,0 -0.414063,-0.304688 -0.01563,-0.03906 -0.01563,-0.08594 0,-0.05469 -0.0078,-0.109375 v -0.226563 q -0.01563,-0.109375 -0.05469,-0.171875 -0.03906,-0.0625 -0.132812,-0.0625 -0.132813,0 -0.257813,0.171875 -0.117187,0.164063 -0.210937,0.398438 -0.08594,0.226562 -0.140625,0.46875 -0.05469,0.242187 -0.05469,0.390625 0,0.117187 0.01563,0.289062 0.01563,0.164063 0.0625,0.320313 0.04687,0.15625 0.125,0.273437 0.08594,0.109375 0.21875,0.109375 0.132813,0 0.242188,-0.07813 0.117187,-0.08594 0.226562,-0.195312 0.101563,-0.09375 0.21875,-0.195313 0.125,-0.101562 0.28125,-0.101562 0.195313,0 0.304688,0.140625 0.117187,0.140625 0.117187,0.320312 0,0.265625 -0.140625,0.5 -0.140625,0.226563 -0.351562,0.398438 -0.210938,0.164062 -0.46875,0.257812 -0.257813,0.101563 -0.492188,0.101563 -0.421875,0 -0.71875,-0.210938 -0.289062,-0.210937 -0.46875,-0.53125 -0.179687,-0.328125 -0.257812,-0.710937 -0.07813,-0.382813 -0.07813,-0.726563 0,-0.398437 0.109375,-0.859375 0.109375,-0.46875 0.335937,-0.867187 0.226563,-0.398438 0.578125,-0.664063 0.359375,-0.265625 0.851563,-0.265625 0.304687,0 0.523437,0.132813 0.226563,0.132812 0.367188,0.351562 0.148437,0.210938 0.21875,0.476563 0.07813,0.265625 0.07813,0.523437 0,0.03906 0,0.07813 0,0.03906 -0.0078,0.07813 z"
       style="font-family:Chewy;-inkscape-font-specification:'Chewy Bold'"
       id="path1119" /><path
       d="m 31.357145,29.32955 q -0.398437,0 -0.695312,-0.210938 -0.296875,-0.210937 -0.5,-0.539062 -0.203125,-0.328125 -0.304688,-0.726563 -0.101562,-0.40625 -0.101562,-0.796875 0,-0.414062 0.101562,-0.851562 0.101563,-0.445313 0.3125,-0.804688 0.210938,-0.367187 0.539063,-0.59375 0.328125,-0.234375 0.78125,-0.234375 0.4375,0 0.742187,0.242188 0.3125,0.234375 0.5,0.59375 0.1875,0.351562 0.265625,0.773437 0.07813,0.421875 0.05469,0.796875 -0.02344,0.414063 -0.132813,0.835938 -0.101562,0.421875 -0.304687,0.757812 -0.203125,0.335938 -0.515625,0.546875 -0.3125,0.210938 -0.742188,0.210938 z m 0.07813,-3.53125 q -0.117187,0 -0.210937,0.125 -0.08594,0.125 -0.148438,0.304687 -0.05469,0.179688 -0.08594,0.382813 -0.03125,0.195312 -0.03125,0.34375 0,0.1875 0.03125,0.40625 0.03906,0.21875 0.101562,0.40625 0.0625,0.179687 0.148438,0.304687 0.09375,0.117188 0.210937,0.117188 0.125,0 0.210938,-0.117188 0.09375,-0.117187 0.148437,-0.296875 0.05469,-0.179687 0.07813,-0.390625 0.02344,-0.21875 0.02344,-0.40625 0,-0.171875 -0.03125,-0.375 -0.03125,-0.210937 -0.09375,-0.390625 -0.05469,-0.179687 -0.148438,-0.296875 Q 31.552458,25.7983 31.43527,25.7983 Z"
       style="font-family:Chewy;-inkscape-font-specification:'Chewy Bold'"
       id="path1121" /><path
       d="m 38.193083,26.524862 q 0,0.148438 0,0.40625 0,0.25 -0.01563,0.546875 -0.0078,0.296875 -0.04687,0.601563 -0.03906,0.296875 -0.125,0.539062 -0.07813,0.242188 -0.203125,0.398438 -0.125,0.15625 -0.320313,0.15625 -0.171875,0 -0.265625,-0.140625 -0.08594,-0.148438 -0.125,-0.34375 -0.03906,-0.195313 -0.04687,-0.398438 0,-0.203125 0,-0.320312 0,-0.351563 0.02344,-0.6875 0.02344,-0.335938 0.02344,-0.6875 0,-0.03906 0,-0.140625 0,-0.101563 -0.01563,-0.203125 -0.01563,-0.101563 -0.05469,-0.179688 -0.03125,-0.07813 -0.101563,-0.07813 -0.140625,0 -0.226562,0.148438 -0.08594,0.140625 -0.140625,0.335937 -0.05469,0.195313 -0.07813,0.390625 -0.02344,0.1875 -0.03125,0.28125 -0.01563,0.101563 -0.03125,0.304688 -0.0078,0.203125 -0.03125,0.445312 -0.01563,0.242188 -0.0625,0.5 -0.03906,0.25 -0.109375,0.460938 -0.0625,0.203125 -0.164063,0.335937 -0.101562,0.132813 -0.25,0.132813 -0.1875,0 -0.289062,-0.164063 -0.101563,-0.164062 -0.148438,-0.382812 -0.04687,-0.21875 -0.0625,-0.445313 -0.0078,-0.226562 -0.0078,-0.351562 0,-0.132813 0,-0.257813 0.0078,-0.125 0.0078,-0.257812 0,-0.05469 0,-0.179688 0,-0.125 -0.0078,-0.273437 0,-0.15625 -0.01563,-0.320313 -0.0078,-0.164062 -0.03125,-0.296875 -0.02344,-0.140625 -0.07031,-0.226562 -0.04687,-0.08594 -0.109375,-0.08594 -0.101562,0 -0.1875,0.132813 -0.08594,0.125 -0.148437,0.304687 -0.0625,0.171875 -0.101563,0.34375 -0.03125,0.171875 -0.03125,0.25 v 0.04687 q 0,0.375 0.04687,0.734375 0.04687,0.359375 0.04687,0.734375 0,0.21875 -0.140625,0.40625 -0.140625,0.179688 -0.390625,0.179688 -0.179687,0 -0.296875,-0.132813 -0.117187,-0.140625 -0.195312,-0.359375 -0.07813,-0.21875 -0.125,-0.476562 -0.03906,-0.265625 -0.05469,-0.515625 -0.01563,-0.257813 -0.02344,-0.460938 0,-0.210937 0,-0.3125 0,-0.117187 -0.0078,-0.34375 0,-0.226562 0.0078,-0.492187 0.01563,-0.265625 0.04687,-0.539063 0.03125,-0.28125 0.101562,-0.507812 0.07031,-0.226563 0.179688,-0.367188 0.117187,-0.148437 0.296875,-0.148437 0.203125,0 0.328125,0.109375 0.132812,0.109375 0.132812,0.328125 0,0.04687 -0.0078,0.09375 0,0.04687 -0.0078,0.08594 0.08594,-0.125 0.210938,-0.25 0.125,-0.132812 0.265625,-0.234375 0.148437,-0.109375 0.3125,-0.171875 0.164062,-0.07031 0.328125,-0.07031 0.15625,0 0.28125,0.08594 0.125,0.08594 0.21875,0.21875 0.09375,0.125 0.15625,0.273438 0.0625,0.148437 0.08594,0.28125 0.07813,-0.140625 0.1875,-0.28125 0.117188,-0.148438 0.25,-0.257813 0.132813,-0.109375 0.289063,-0.179687 0.164062,-0.07031 0.335937,-0.07031 0.164063,0 0.28125,0.117188 0.117188,0.117187 0.203125,0.304687 0.08594,0.179688 0.132813,0.414063 0.04687,0.226562 0.07813,0.453125 0.03125,0.21875 0.03906,0.414062 0.0078,0.1875 0.0078,0.296875 z"
       style="font-family:Chewy;-inkscape-font-specification:'Chewy Bold'"
       id="path1123" /></g></svg>
